<svg fill="#000" width="48" height="48" viewBox="0 0 48 48" id="icon--search" version="1.1" xmlns="http://www.w3.org/2000/svg" xmlnsXlink="http://www.w3.org/1999/xlink">
    <path d="M30.747 28.312l4.955 4.952a1.016 1.016 0 1 1-1.44 1.438l-4.956-4.953A9.963 9.963 0 0 1 23 31.985c-5.523 0-10-4.474-10-9.992C13 16.473 17.477 12 23 12s10 4.474 10 9.993a9.947 9.947 0 0 1-2.253 6.32zm-7.712 1.71c4.419 0 8-3.579 8-7.994 0-4.415-3.581-7.994-8-7.994-4.418 0-8 3.58-8 7.994 0 4.415 3.582 7.994 8 7.994z" fill-rule="nonzero"></path>
</svg>